<svg width="119" height="119" viewBox="0 0 119 119" fill="none" xmlns="http://www.w3.org/2000/svg">
<path fill-rule="evenodd" clip-rule="evenodd" d="M89.3203 26.7832C96.4738 34.3492 94.4152 45.9913 94.2598 56.3831C94.1 67.0667 95.333 78.5105 88.4251 86.6444C80.908 95.4958 69.1496 99.6224 57.5155 99.6492C45.4266 99.6769 33.1432 95.7886 25.0479 86.7899C17.0756 77.9279 14.2397 65.3567 16.0981 53.6095C17.7683 43.0522 25.7288 35.1492 34.2388 28.694C41.7418 23.0026 50.6618 20.568 60.0886 20.241C70.4546 19.8814 82.1845 19.2359 89.3203 26.7832Z" stroke="#BC9A6C"/>
<path d="M71.5155 60.0423C70.3058 60.0423 69.1149 60.2387 68.0214 60.6132L67.149 56.611C67.0843 56.3143 66.7487 56.097 66.3553 56.097H63.5095L71.7706 40.7574C71.9825 40.364 71.9242 39.9181 71.6144 39.5645C71.3048 39.2111 70.7877 39 70.2312 39H40.1177C39.5612 39 39.0441 39.2111 38.7344 39.5646C38.4247 39.9182 38.3664 40.3641 38.5783 40.7574L46.8394 56.097H43.9937C43.905 56.097 43.8197 56.1085 43.7394 56.1289L43.7392 56.1285L38.579 57.4436C38.3303 57.507 38.1376 57.659 38.0625 57.851C37.9874 58.0431 38.0395 58.251 38.2019 58.4083L42.0051 62.093L38.7073 77.2209C38.5018 78.1639 38.8475 79.123 39.6556 79.8523C40.4637 80.5816 41.6442 81 42.8945 81H67.4544C68.7047 81 69.8852 80.5816 70.6933 79.8523C71.5014 79.123 71.847 78.1639 71.6416 77.2209L71.3181 75.7369C71.3839 75.738 71.4497 75.7394 71.5155 75.7394C76.2274 75.7394 80.0606 72.8085 80.0606 69.206V66.5757C80.0606 62.9732 76.2274 60.0423 71.5155 60.0423ZM40.0716 40.2493C40.0882 40.2305 40.1074 40.2305 40.1177 40.2305H70.2312C70.2415 40.2305 70.2607 40.2305 70.2773 40.2493C70.2938 40.268 70.2864 40.2817 70.2824 40.289L68.8518 42.9455H66.3555C65.9111 42.9455 65.5508 43.2209 65.5508 43.5607C65.5508 43.9005 65.9111 44.1759 66.3555 44.1759H68.1892L66.489 47.3327C66.1108 47.2313 65.7853 47.1029 65.4283 46.9606C64.5729 46.6196 63.6036 46.2333 61.7565 46.2333C59.9104 46.2333 58.9416 46.6196 58.0867 46.9606C57.2959 47.276 56.6128 47.5484 55.1613 47.5484C53.7114 47.5484 53.029 47.2761 52.239 46.9606C51.3849 46.6196 50.4167 46.2332 48.572 46.2332C46.7274 46.2332 45.7594 46.6196 44.9053 46.9606C44.5648 47.0966 44.237 47.2267 43.8583 47.3295L42.1598 44.1758H62.9152C63.3596 44.1758 63.7199 43.9004 63.7199 43.5606C63.7199 43.2208 63.3596 42.9454 62.9152 42.9454H41.4972L40.0665 40.2889C40.0625 40.2817 40.0552 40.268 40.0716 40.2493ZM44.4714 48.468C44.9234 48.3403 45.3033 48.19 45.6503 48.0514C46.4402 47.736 47.1225 47.4637 48.5721 47.4637C50.022 47.4637 50.7044 47.736 51.4943 48.0514C52.3485 48.3924 53.3167 48.7789 55.1614 48.7789C57.0075 48.7789 57.9763 48.3925 58.8312 48.0516C59.622 47.7362 60.305 47.4637 61.7566 47.4637C63.2094 47.4637 63.8929 47.7362 64.6844 48.0517C65.036 48.1918 65.418 48.3436 65.8757 48.4717L61.7691 56.0969H48.58L44.4714 48.468ZM61.1063 57.3273L58.95 61.3312C58.9414 61.3471 58.9212 61.3575 58.8987 61.3575H51.4501C51.4276 61.3575 51.4075 61.3472 51.3988 61.3313L50.2028 59.1103C50.0336 58.7961 49.5633 58.6462 49.1523 58.7756C48.7414 58.905 48.5453 59.2645 48.7145 59.5788L49.9106 61.7998C50.1685 62.2786 50.7728 62.588 51.45 62.588H58.8986C59.5759 62.588 60.18 62.2787 60.438 61.7998L62.8466 57.3274H65.6734L68.8429 71.8669C68.6862 71.8745 68.524 71.8787 68.356 71.8787C66.9032 71.8787 66.2196 71.6063 65.4282 71.2908C64.5728 70.9499 63.6035 70.5635 61.7563 70.5635C59.9103 70.5635 58.9415 70.9499 58.0866 71.2908C57.2957 71.6062 56.6127 71.8786 55.1612 71.8786C53.7113 71.8786 53.0289 71.6063 52.2389 71.2909C51.3848 70.9499 50.4166 70.5634 48.5718 70.5634C46.7273 70.5634 45.7593 70.9499 44.9052 71.2909C44.1152 71.6063 43.4331 71.8786 41.9834 71.8786C41.8165 71.8786 41.6588 71.8741 41.5058 71.8668L44.6753 57.3273H61.1063V57.3273ZM40.175 58.3339L42.9803 57.6189L42.3625 60.4531L40.175 58.3339ZM69.4654 79.0569C68.9637 79.5098 68.2307 79.7695 67.4544 79.7695H42.8945C42.1182 79.7695 41.3853 79.5098 40.8835 79.0569C40.3817 78.604 40.1671 78.0086 40.2948 77.4231L41.2403 73.0862C41.4775 73.1012 41.7236 73.1091 41.9836 73.1091C43.8281 73.1091 44.7962 72.7226 45.6503 72.3816C46.4402 72.0662 47.1224 71.7939 48.5721 71.7939C50.022 71.7939 50.7044 72.0662 51.4943 72.3816C52.3485 72.7226 53.3167 73.1091 55.1614 73.1091C57.0075 73.1091 57.9763 72.7227 58.8312 72.3818C59.622 72.0664 60.305 71.794 61.7566 71.794C63.2094 71.794 63.8929 72.0664 64.6844 72.3819C65.5397 72.7228 66.5091 73.1092 68.3562 73.1092C68.6162 73.1092 68.8678 73.101 69.1088 73.0856L70.0543 77.4232C70.1818 78.0086 69.9672 78.6041 69.4654 79.0569ZM78.4513 69.206C78.4513 72.1301 75.3399 74.5089 71.5155 74.5089C71.3597 74.5089 71.2034 74.5049 71.0478 74.497L68.297 61.8779C69.2851 61.4817 70.3901 61.2728 71.5155 61.2728C75.34 61.2728 78.4513 63.6517 78.4513 66.5757V69.206Z" fill="#BC9A6C"/>
<path d="M55.1744 69.8212C56.5666 69.8212 57.6992 68.9552 57.6992 67.8909C57.6992 67.039 56.2734 65.3946 55.8365 64.9109C55.6863 64.7446 55.4388 64.6454 55.1744 64.6454C54.9101 64.6454 54.6625 64.7446 54.5123 64.9109C54.0753 65.3946 52.6497 67.039 52.6497 67.8909C52.6497 68.9552 53.7823 69.8212 55.1744 69.8212ZM55.1746 66.3967C55.7036 67.0704 56.0881 67.6833 56.0899 67.8909C56.0899 68.2767 55.6792 68.5908 55.1745 68.5908C54.6698 68.5908 54.2591 68.2767 54.2591 67.8909C54.2608 67.6837 54.6456 67.0707 55.1746 66.3967Z" fill="#BC9A6C"/>
</svg>
