<svg width="20" height="21" viewBox="0 0 20 21" fill="none" xmlns="http://www.w3.org/2000/svg">
<path d="M16.25 4.11523H3.75C3.40482 4.11523 3.125 4.39452 3.125 4.73904V17.2152C3.125 17.5597 3.40482 17.839 3.75 17.839H16.25C16.5952 17.839 16.875 17.5597 16.875 17.2152V4.73904C16.875 4.39452 16.5952 4.11523 16.25 4.11523Z" stroke="#BC9A6C" stroke-width="1.5" stroke-linecap="round" stroke-linejoin="round"/>
<path d="M13.75 2.86743V5.36266" stroke="#BC9A6C" stroke-width="1.5" stroke-linecap="round" stroke-linejoin="round"/>
<path d="M6.25 2.86743V5.36266" stroke="#BC9A6C" stroke-width="1.5" stroke-linecap="round" stroke-linejoin="round"/>
<path d="M3.125 7.85791H16.875" stroke="#BC9A6C" stroke-width="1.5" stroke-linecap="round" stroke-linejoin="round"/>
<path d="M7.1875 10.9768H9.375L8.125 12.5363C8.33053 12.5363 8.53289 12.5869 8.71416 12.6836C8.89543 12.7803 9.05002 12.9201 9.16423 13.0906C9.27845 13.2612 9.34876 13.4572 9.36895 13.6614C9.38915 13.8655 9.35859 14.0715 9.28 14.261C9.2014 14.4506 9.07719 14.6179 8.91836 14.748C8.75953 14.8782 8.57099 14.9673 8.36942 15.0075C8.16786 15.0476 7.9595 15.0375 7.76278 14.978C7.56607 14.9186 7.38708 14.8116 7.24166 14.6667" stroke="#BC9A6C" stroke-width="1.5" stroke-linecap="round" stroke-linejoin="round"/>
<path d="M11.25 11.9125L12.5 10.9768V15.0315" stroke="#BC9A6C" stroke-width="1.5" stroke-linecap="round" stroke-linejoin="round"/>
</svg>
