<svg width="119" height="119" viewBox="0 0 119 119" fill="none" xmlns="http://www.w3.org/2000/svg">
<mask id="path-1-inside-1_2014_872" fill="white">
<path d="M75.3726 46.3239L74.0601 42.3864C73.9709 42.118 73.7202 41.9375 73.4374 41.9375H72.598L71.4351 38.4489C71.3459 38.1805 71.0952 38 70.8124 38H47.1874C46.9045 38 46.6538 38.1805 46.5646 38.4489L45.4017 41.9375H44.5624C44.2795 41.9375 44.0295 42.118 43.9396 42.3864L42.6271 46.3239C42.5601 46.524 42.5943 46.7439 42.7176 46.9152C42.841 47.0864 43.0392 47.1875 43.2499 47.1875H45.2691L47.8456 79.3963C47.8731 79.7375 48.158 80 48.4999 80H69.4999C69.8418 80 70.1266 79.7375 70.1541 79.3963L72.7306 47.1875H74.7499C74.9605 47.1875 75.1587 47.0864 75.2821 46.9145C75.4055 46.7439 75.4389 46.524 75.3726 46.3239V46.3239ZM69.5524 70.4594H48.4474L47.1716 54.5145H70.8275L69.5524 70.4594ZM49.1056 78.6875L48.5524 71.7719H69.4474L68.8941 78.6875H49.1056ZM70.9331 53.2027H47.0666L46.5856 47.1875H71.4141L70.9331 53.2027ZM44.1601 45.875L45.0349 43.25H45.8749C46.1577 43.25 46.4084 43.0695 46.4976 42.8011L47.6605 39.3125H70.3399L71.5027 42.8011C71.592 43.0695 71.842 43.25 72.1249 43.25H72.9642L73.839 45.875H44.1601Z"/>
</mask>
<path d="M75.3726 46.3239L74.0601 42.3864C73.9709 42.118 73.7202 41.9375 73.4374 41.9375H72.598L71.4351 38.4489C71.3459 38.1805 71.0952 38 70.8124 38H47.1874C46.9045 38 46.6538 38.1805 46.5646 38.4489L45.4017 41.9375H44.5624C44.2795 41.9375 44.0295 42.118 43.9396 42.3864L42.6271 46.3239C42.5601 46.524 42.5943 46.7439 42.7176 46.9152C42.841 47.0864 43.0392 47.1875 43.2499 47.1875H45.2691L47.8456 79.3963C47.8731 79.7375 48.158 80 48.4999 80H69.4999C69.8418 80 70.1266 79.7375 70.1541 79.3963L72.7306 47.1875H74.7499C74.9605 47.1875 75.1587 47.0864 75.2821 46.9145C75.4055 46.7439 75.4389 46.524 75.3726 46.3239V46.3239ZM69.5524 70.4594H48.4474L47.1716 54.5145H70.8275L69.5524 70.4594ZM49.1056 78.6875L48.5524 71.7719H69.4474L68.8941 78.6875H49.1056ZM70.9331 53.2027H47.0666L46.5856 47.1875H71.4141L70.9331 53.2027ZM44.1601 45.875L45.0349 43.25H45.8749C46.1577 43.25 46.4084 43.0695 46.4976 42.8011L47.6605 39.3125H70.3399L71.5027 42.8011C71.592 43.0695 71.842 43.25 72.1249 43.25H72.9642L73.839 45.875H44.1601Z" fill="#BC9A6C"/>
<path d="M74.0601 42.3864L66.4688 44.9106L66.4707 44.9162L74.0601 42.3864ZM72.598 41.9375L65.0086 44.4673L66.8319 49.9375H72.598V41.9375ZM71.4351 38.4489L63.8438 40.9731L63.8457 40.9787L71.4351 38.4489ZM46.5646 38.4489L54.154 40.9787L54.1559 40.9731L46.5646 38.4489ZM45.4017 41.9375V49.9375H51.1678L52.9912 44.4673L45.4017 41.9375ZM43.9396 42.3864L36.3538 39.8454L36.3501 39.8566L43.9396 42.3864ZM42.6271 46.3239L50.2141 48.8612L50.2165 48.8537L42.6271 46.3239ZM45.2691 47.1875L53.2437 46.5496L52.6548 39.1875H45.2691V47.1875ZM47.8456 79.3963L39.871 80.0341L39.8715 80.0403L47.8456 79.3963ZM70.1541 79.3963L78.1282 80.0403L78.1287 80.0341L70.1541 79.3963ZM72.7306 47.1875V39.1875H65.345L64.7561 46.5496L72.7306 47.1875ZM75.2821 46.9145L68.7993 42.2269L68.7908 42.2387L68.7823 42.2505L75.2821 46.9145ZM69.5524 70.4594V78.4594H76.9382L77.5269 71.0972L69.5524 70.4594ZM48.4474 70.4594L40.4728 71.0975L41.0619 78.4594H48.4474V70.4594ZM47.1716 54.5145V46.5145H38.506L39.1971 55.1526L47.1716 54.5145ZM70.8275 54.5145L78.802 55.1522L79.4927 46.5145H70.8275V54.5145ZM49.1056 78.6875L41.1311 79.3254L41.72 86.6875H49.1056V78.6875ZM48.5524 71.7719V63.7719H39.8868L40.5778 72.4099L48.5524 71.7719ZM69.4474 71.7719L77.4219 72.4099L78.1129 63.7719H69.4474V71.7719ZM68.8941 78.6875V86.6875H76.2797L76.8687 79.3254L68.8941 78.6875ZM70.9331 53.2027V61.2027H78.3189L78.9077 53.8404L70.9331 53.2027ZM47.0666 53.2027L39.0921 53.8404L39.6808 61.2027H47.0666V53.2027ZM46.5856 47.1875V39.1875H37.9203L38.611 47.8252L46.5856 47.1875ZM71.4141 47.1875L79.3887 47.8252L80.0794 39.1875H71.4141V47.1875ZM44.1601 45.875L36.5704 43.3457L33.0615 53.875H44.1601V45.875ZM45.0349 43.25V35.25H39.2683L37.4452 40.7207L45.0349 43.25ZM46.4976 42.8011L38.9082 40.2713L38.9063 40.2769L46.4976 42.8011ZM47.6605 39.3125V31.3125H41.8944L40.071 36.7827L47.6605 39.3125ZM70.3399 39.3125L77.9293 36.7827L76.1059 31.3125H70.3399V39.3125ZM71.5027 42.8011L79.0941 40.2769L79.0922 40.2713L71.5027 42.8011ZM72.9642 43.25L80.5539 40.7207L78.7307 35.25H72.9642V43.25ZM73.839 45.875V53.875H84.9375L81.4286 43.3457L73.839 45.875ZM82.9621 43.7941L81.6496 39.8566L66.4707 44.9162L67.7832 48.8537L82.9621 43.7941ZM81.6515 39.8621C80.4728 36.3175 77.1588 33.9375 73.4374 33.9375V49.9375C70.2816 49.9375 67.469 47.9184 66.4688 44.9106L81.6515 39.8621ZM73.4374 33.9375H72.598V49.9375H73.4374V33.9375ZM80.1875 39.4077L79.0246 35.9191L63.8457 40.9787L65.0086 44.4673L80.1875 39.4077ZM79.0265 35.9246C77.8478 32.38 74.5338 30 70.8124 30V46C67.6566 46 64.844 43.9809 63.8438 40.9731L79.0265 35.9246ZM70.8124 30H47.1874V46H70.8124V30ZM47.1874 30C43.4659 30 40.1519 32.38 38.9733 35.9246L54.1559 40.9731C53.1557 43.9809 50.3431 46 47.1874 46V30ZM38.9751 35.9191L37.8122 39.4077L52.9912 44.4673L54.154 40.9787L38.9751 35.9191ZM45.4017 33.9375H44.5624V49.9375H45.4017V33.9375ZM44.5624 33.9375C40.8282 33.9375 37.5322 36.3275 36.3538 39.8454L51.5253 44.9273C50.5268 47.9084 47.7308 49.9375 44.5624 49.9375V33.9375ZM36.3501 39.8566L35.0376 43.7941L50.2165 48.8537L51.529 44.9162L36.3501 39.8566ZM35.0401 43.7866C34.1502 46.4476 34.6113 49.3488 36.2263 51.5909L49.209 42.2394C50.5772 44.1389 50.9701 46.6005 50.2141 48.8612L35.0401 43.7866ZM36.2263 51.5909C37.858 53.8562 40.4751 55.1875 43.2499 55.1875V39.1875C45.6033 39.1875 47.824 40.3167 49.209 42.2394L36.2263 51.5909ZM43.2499 55.1875H45.2691V39.1875H43.2499V55.1875ZM37.2946 47.8254L39.8711 80.0341L55.8201 78.7584L53.2437 46.5496L37.2946 47.8254ZM39.8715 80.0403C40.2347 84.537 43.9899 88 48.4999 88V72C52.326 72 55.5115 74.938 55.8196 78.7522L39.8715 80.0403ZM48.4999 88H69.4999V72H48.4999V88ZM69.4999 88C74.0098 88 77.765 84.537 78.1282 80.0403L62.1801 78.7522C62.4882 74.938 65.6737 72 69.4999 72V88ZM78.1287 80.0341L80.7051 47.8254L64.7561 46.5496L62.1796 78.7584L78.1287 80.0341ZM72.7306 55.1875H74.7499V39.1875H72.7306V55.1875ZM74.7499 55.1875C77.5274 55.1875 80.1496 53.8532 81.7819 51.5785L68.7823 42.2505C70.1678 40.3197 72.3937 39.1875 74.7499 39.1875V55.1875ZM81.7649 51.6021C83.4032 49.3363 83.8366 46.4346 82.9671 43.809L67.7782 48.8388C67.0413 46.6134 67.4077 44.1515 68.7993 42.2269L81.7649 51.6021ZM69.5524 62.4594H48.4474V78.4594H69.5524V62.4594ZM56.4219 69.8214L55.1461 53.8765L39.1971 55.1526L40.4728 71.0975L56.4219 69.8214ZM47.1716 62.5145H70.8275V46.5145H47.1716V62.5145ZM62.8529 53.8768L61.5778 69.8217L77.5269 71.0972L78.802 55.1522L62.8529 53.8768ZM57.0801 78.0496L56.5269 71.134L40.5778 72.4099L41.1311 79.3254L57.0801 78.0496ZM48.5524 79.7719H69.4474V63.7719H48.5524V79.7719ZM61.4728 71.134L60.9196 78.0496L76.8687 79.3254L77.4219 72.4099L61.4728 71.134ZM68.8941 70.6875H49.1056V86.6875H68.8941V70.6875ZM70.9331 45.2027H47.0666V61.2027H70.9331V45.2027ZM55.0412 52.565L54.5601 46.5498L38.611 47.8252L39.0921 53.8404L55.0412 52.565ZM46.5856 55.1875H71.4141V39.1875H46.5856V55.1875ZM63.4396 46.5498L62.9586 52.565L78.9077 53.8404L79.3887 47.8252L63.4396 46.5498ZM51.7497 48.4043L52.6245 45.7793L37.4452 40.7207L36.5704 43.3457L51.7497 48.4043ZM45.0349 51.25H45.8749V35.25H45.0349V51.25ZM45.8749 51.25C49.5963 51.25 52.9103 48.87 54.089 45.3254L38.9063 40.2769C39.9065 37.2691 42.7191 35.25 45.8749 35.25V51.25ZM54.0871 45.3309L55.25 41.8423L40.071 36.7827L38.9082 40.2713L54.0871 45.3309ZM47.6605 47.3125H70.3399V31.3125H47.6605V47.3125ZM62.7504 41.8423L63.9133 45.3309L79.0922 40.2713L77.9293 36.7827L62.7504 41.8423ZM63.9114 45.3254C65.0871 48.8611 68.394 51.25 72.1249 51.25V35.25C75.29 35.25 78.0969 37.278 79.0941 40.2769L63.9114 45.3254ZM72.1249 51.25H72.9642V35.25H72.1249V51.25ZM65.3745 45.7793L66.2493 48.4043L81.4286 43.3457L80.5539 40.7207L65.3745 45.7793ZM73.839 37.875H44.1601V53.875H73.839V37.875Z" fill="#BC9A6C" mask="url(#path-1-inside-1_2014_872)"/>
<mask id="path-3-inside-2_2014_872" fill="white">
<path d="M58.9998 56.375C56.4011 56.375 54.2866 59.1719 54.2866 62.6094C54.2866 66.0468 56.4011 68.8438 58.9998 68.8438C61.5986 68.8438 63.713 66.0468 63.713 62.6094C63.713 59.1719 61.5986 56.375 58.9998 56.375ZM55.5991 62.6094C55.5991 61.4012 55.9023 60.2954 56.403 59.4384C56.3932 59.5657 56.3748 59.6891 56.3748 59.8203C56.3748 61.7523 57.5278 63.2656 58.9998 63.2656C59.6987 63.2656 60.3123 64.2625 60.3123 65.3984C60.3123 66.5344 59.6987 67.5312 58.9998 67.5312C57.1249 67.5312 55.5991 65.3236 55.5991 62.6094ZM61.5966 65.7804C61.6064 65.6531 61.6248 65.5297 61.6248 65.3984C61.6248 63.4664 60.4718 61.9531 58.9998 61.9531C58.3009 61.9531 57.6873 60.9563 57.6873 59.8203C57.6873 58.6843 58.3009 57.6875 58.9998 57.6875C60.8747 57.6875 62.4005 59.8951 62.4005 62.6094C62.4005 63.8175 62.0967 64.9233 61.5966 65.7804Z"/>
</mask>
<path d="M58.9998 56.375C56.4011 56.375 54.2866 59.1719 54.2866 62.6094C54.2866 66.0468 56.4011 68.8438 58.9998 68.8438C61.5986 68.8438 63.713 66.0468 63.713 62.6094C63.713 59.1719 61.5986 56.375 58.9998 56.375ZM55.5991 62.6094C55.5991 61.4012 55.9023 60.2954 56.403 59.4384C56.3932 59.5657 56.3748 59.6891 56.3748 59.8203C56.3748 61.7523 57.5278 63.2656 58.9998 63.2656C59.6987 63.2656 60.3123 64.2625 60.3123 65.3984C60.3123 66.5344 59.6987 67.5312 58.9998 67.5312C57.1249 67.5312 55.5991 65.3236 55.5991 62.6094ZM61.5966 65.7804C61.6064 65.6531 61.6248 65.5297 61.6248 65.3984C61.6248 63.4664 60.4718 61.9531 58.9998 61.9531C58.3009 61.9531 57.6873 60.9563 57.6873 59.8203C57.6873 58.6843 58.3009 57.6875 58.9998 57.6875C60.8747 57.6875 62.4005 59.8951 62.4005 62.6094C62.4005 63.8175 62.0967 64.9233 61.5966 65.7804Z" fill="#BC9A6C"/>
<path d="M56.403 59.4384L64.3792 60.0551L49.4955 55.4028L56.403 59.4384ZM61.5966 65.7804L53.6204 65.1637L68.5064 69.812L61.5966 65.7804ZM58.9998 48.375C54.6371 48.375 51.2825 50.7393 49.2871 53.3787C47.2926 56.0169 46.2866 59.3061 46.2866 62.6094H62.2866C62.2866 62.4752 62.3378 62.6472 62.0503 63.0276C61.7618 63.4092 60.7637 64.375 58.9998 64.375V48.375ZM46.2866 62.6094C46.2866 65.9126 47.2926 69.2018 49.2871 71.8401C51.2825 74.4795 54.6371 76.8438 58.9998 76.8438V60.8438C60.7637 60.8438 61.7618 61.8096 62.0503 62.1912C62.3378 62.5715 62.2866 62.7436 62.2866 62.6094H46.2866ZM58.9998 76.8438C63.3625 76.8438 66.7171 74.4795 68.7125 71.8401C70.707 69.2018 71.713 65.9126 71.713 62.6094H55.713C55.713 62.7436 55.6618 62.5715 55.9493 62.1912C56.2378 61.8096 57.2359 60.8438 58.9998 60.8438V76.8438ZM71.713 62.6094C71.713 59.3061 70.707 56.0169 68.7125 53.3787C66.7171 50.7393 63.3625 48.375 58.9998 48.375V64.375C57.2359 64.375 56.2378 63.4092 55.9493 63.0276C55.6618 62.6472 55.713 62.4752 55.713 62.6094H71.713ZM63.5991 62.6094C63.5991 62.6709 63.5918 62.7665 63.558 62.897C63.5253 63.0235 63.457 63.2232 63.3106 63.4739L49.4955 55.4028C48.2189 57.5879 47.5991 60.1078 47.5991 62.6094H63.5991ZM48.4268 58.8217C48.431 58.7672 48.4347 58.7313 48.433 58.7486C48.4298 58.7817 48.4337 58.7421 48.4286 58.7935C48.4263 58.8165 48.4228 58.8521 48.419 58.8933C48.4047 59.0487 48.3748 59.3935 48.3748 59.8203H64.3748C64.3748 59.9735 64.3695 60.1004 64.3641 60.1913C64.3589 60.2799 64.3531 60.3439 64.3514 60.3624C64.3505 60.372 64.3501 60.3761 64.351 60.3676C64.3514 60.3632 64.3519 60.3586 64.3527 60.3497C64.3535 60.3419 64.3547 60.3304 64.3559 60.318C64.3604 60.2722 64.3701 60.1732 64.3792 60.0551L48.4268 58.8217ZM48.3748 59.8203C48.3748 64.0146 51.2254 71.2656 58.9998 71.2656V55.2656C61.2169 55.2656 62.7577 56.4464 63.4988 57.4191C64.2113 58.3543 64.3748 59.2494 64.3748 59.8203H48.3748ZM58.9998 71.2656C55.3589 71.2656 53.5455 68.8148 53.105 68.0991C52.5025 67.12 52.3123 66.1771 52.3123 65.3984H68.3123C68.3123 63.4838 67.8154 61.4745 66.7313 59.713C65.8093 58.2149 63.3396 55.2656 58.9998 55.2656V71.2656ZM52.3123 65.3984C52.3123 64.6198 52.5025 63.6769 53.105 62.6978C53.5455 61.9821 55.3589 59.5312 58.9998 59.5312V75.5312C63.3396 75.5312 65.8093 72.582 66.7313 71.0839C67.8154 69.3223 68.3123 67.3131 68.3123 65.3984H52.3123ZM58.9998 59.5312C61.4446 59.5312 62.7875 60.9753 63.1779 61.5403C63.594 62.1424 63.5991 62.543 63.5991 62.6094H47.5991C47.5991 65.39 48.3671 68.2515 50.0148 70.636C51.6369 72.9834 54.6801 75.5312 58.9998 75.5312V59.5312ZM69.5728 66.3971C69.5686 66.4515 69.5649 66.4874 69.5666 66.4702C69.5698 66.4371 69.566 66.4766 69.571 66.4252C69.5733 66.4023 69.5768 66.3666 69.5806 66.3254C69.5949 66.17 69.6248 65.8252 69.6248 65.3984H53.6248C53.6248 65.2452 53.6302 65.1183 53.6355 65.0275C53.6407 64.9388 53.6465 64.8748 53.6482 64.8564C53.6491 64.8467 53.6495 64.8426 53.6487 64.8512C53.6482 64.8555 53.6478 64.8601 53.6469 64.8691C53.6461 64.8768 53.645 64.8884 53.6437 64.9007C53.6392 64.9465 53.6295 65.0456 53.6204 65.1637L69.5728 66.3971ZM69.6248 65.3984C69.6248 61.2041 66.7743 53.9531 58.9998 53.9531V69.9531C56.7827 69.9531 55.2419 68.7723 54.5009 67.7997C53.7883 66.8644 53.6248 65.9694 53.6248 65.3984H69.6248ZM58.9998 53.9531C62.6407 53.9531 64.4541 56.404 64.8946 57.1197C65.4972 58.0988 65.6873 59.0417 65.6873 59.8203H49.6873C49.6873 61.7349 50.1843 63.7442 51.2684 65.5057C52.1903 67.0039 54.66 69.9531 58.9998 69.9531V53.9531ZM65.6873 59.8203C65.6873 60.599 65.4972 61.5418 64.8946 62.5209C64.4541 63.2367 62.6407 65.6875 58.9998 65.6875V49.6875C54.66 49.6875 52.1903 52.6368 51.2684 54.1349C50.1843 55.8964 49.6873 57.9057 49.6873 59.8203H65.6873ZM58.9998 65.6875C56.555 65.6875 55.2121 64.2435 54.8217 63.6784C54.4056 63.0763 54.4005 62.6758 54.4005 62.6094H70.4005C70.4005 59.8287 69.6325 56.9672 67.9848 54.5827C66.3628 52.2353 63.3196 49.6875 58.9998 49.6875V65.6875ZM54.4005 62.6094C54.4005 62.5463 54.408 62.4504 54.4416 62.3206C54.4742 62.1949 54.5419 61.9971 54.6867 61.7487L68.5064 69.812C69.7785 67.6317 70.4005 65.1143 70.4005 62.6094H54.4005Z" fill="#BC9A6C" mask="url(#path-3-inside-2_2014_872)"/>
<path d="M52.4999 42.5938C52.4999 42.8184 52.4777 43.0378 52.4355 43.25H49.8142C49.772 43.0378 49.7499 42.8184 49.7499 42.5938C49.7499 42.3691 49.772 42.1497 49.8142 41.9375L52.4355 41.9375C52.4777 42.1497 52.4999 42.3691 52.4999 42.5938Z" fill="#BC9A6C" stroke="#BC9A6C" stroke-width="8"/>
<mask id="path-6-inside-3_2014_872" fill="white">
<path d="M68.1874 41.9375H58.3436C57.9814 41.9375 57.6874 42.2315 57.6874 42.5938C57.6874 42.956 57.9814 43.25 58.3436 43.25H68.1874C68.5496 43.25 68.8436 42.956 68.8436 42.5938C68.8436 42.2315 68.5496 41.9375 68.1874 41.9375Z"/>
</mask>
<path d="M68.1874 41.9375H58.3436C57.9814 41.9375 57.6874 42.2315 57.6874 42.5938C57.6874 42.956 57.9814 43.25 58.3436 43.25H68.1874C68.5496 43.25 68.8436 42.956 68.8436 42.5938C68.8436 42.2315 68.5496 41.9375 68.1874 41.9375Z" fill="#BC9A6C"/>
<path d="M68.1874 33.9375H58.3436V49.9375H68.1874V33.9375ZM58.3436 33.9375C53.5631 33.9375 49.6874 37.8132 49.6874 42.5938H65.6874C65.6874 46.6498 62.3997 49.9375 58.3436 49.9375V33.9375ZM49.6874 42.5938C49.6874 47.3743 53.5631 51.25 58.3436 51.25V35.25C62.3997 35.25 65.6874 38.5377 65.6874 42.5938H49.6874ZM58.3436 51.25H68.1874V35.25H58.3436V51.25ZM68.1874 51.25C72.9679 51.25 76.8436 47.3743 76.8436 42.5938H60.8436C60.8436 38.5377 64.1313 35.25 68.1874 35.25V51.25ZM76.8436 42.5938C76.8436 37.8132 72.9679 33.9375 68.1874 33.9375V49.9375C64.1313 49.9375 60.8436 46.6498 60.8436 42.5938H76.8436Z" fill="#BC9A6C" mask="url(#path-6-inside-3_2014_872)"/>
<path fill-rule="evenodd" clip-rule="evenodd" d="M89.2526 26.7832C96.4007 34.3492 94.3437 45.9913 94.1884 56.3831C94.0287 67.0667 95.2607 78.5105 88.3581 86.6444C80.8467 95.4958 69.0971 99.6224 57.4719 99.6492C45.3922 99.6769 33.1181 95.7886 25.0289 86.7899C17.0627 77.9279 14.2289 65.3567 16.0859 53.6095C17.7548 43.0522 25.7093 35.1492 34.2128 28.694C41.7102 23.0026 50.6234 20.568 60.043 20.241C70.4012 19.8814 82.1223 19.2359 89.2526 26.7832Z" stroke="#BC9A6C"/>
</svg>
