<svg width="100" height="98" viewBox="0 0 100 98" fill="none" xmlns="http://www.w3.org/2000/svg">
<rect width="100" height="98" fill="#BC9A6C"/>
<path d="M65.1679 60.5453L57.96 58.3772V52.3922C59.2685 50.4639 60.2508 48.1431 60.6136 45.5634C62.2022 45.0669 63.1084 43.0934 63.4449 41.4241C63.4891 41.4252 63.5276 41.4286 63.5737 41.4286C64.3887 41.4286 65.3747 41.2895 66.3373 40.8156C66.3439 40.8134 66.3486 40.8077 66.3551 40.8055C66.9069 40.5318 67.4502 40.1495 67.9494 39.6134C69.4289 38.0233 70.18 35.5012 70.18 32.1163C70.18 22.0541 60.7715 12.8899 50.44 12.8899C43.3543 12.8899 40.6809 16.5056 39.6836 18.9552C39.3283 19.1373 38.9645 19.376 38.611 19.7254C37.1146 21.2013 36.3532 23.824 36.3428 27.5178V27.5223C36.3419 27.5472 36.34 27.5687 36.34 27.5924V35.5092V37.442C35.8775 37.8197 35.4 38.5639 35.4 40.033C35.4 41.7408 36.3118 44.9075 38.3798 45.5612C38.7389 48.211 39.7334 50.517 41.04 52.4069V58.3772L33.8321 60.5464C29.2204 61.9318 26 66.8945 26 72.6138V84.1406C26 84.766 26.4211 85.2715 26.94 85.2715C27.4589 85.2715 27.88 84.766 27.88 84.1406V72.6138C27.88 67.935 30.5148 63.8737 34.288 62.7394L41.7901 60.4831C42.8486 61.3494 46.0088 63.6848 49.3064 63.7742L56.08 66.8289V84.1406C56.08 84.766 56.5011 85.2715 57.02 85.2715C57.5389 85.2715 57.96 84.766 57.96 84.1406V66.0452C57.96 65.5735 57.7165 65.1517 57.3499 64.9854L52.9987 63.0221C54.936 62.2338 56.518 61.0463 57.2089 60.4808L64.7111 62.7371C68.4852 63.8737 71.12 67.935 71.12 72.6138V84.1406C71.12 84.766 71.5411 85.2715 72.06 85.2715C72.5789 85.2715 73 84.766 73 84.1406V72.6138C73 66.8945 69.7796 61.9318 65.1679 60.5453ZM42.92 54.6609C44.784 56.5191 46.8718 57.6896 48.56 58.021V61.4387C46.131 61.0621 43.8055 59.377 42.92 58.6679V54.6609ZM50.44 58.0357C52.2345 57.7156 54.2808 56.5247 56.08 54.6982V58.6679C55.1945 59.377 52.869 61.0621 50.44 61.4387V58.0357ZM38.9541 37.4623C38.7032 37.3198 38.4588 37.2192 38.22 37.1457V35.8134C38.5227 35.2841 39.1835 34.7299 40.4929 34.2719C40.0342 35.6799 39.3875 36.8052 38.9541 37.4623ZM38.22 32.9328V27.8932C39.1036 26.1142 42.4265 23.0686 49.5 23.0686C56.5735 23.0686 59.8964 26.1142 60.78 27.8932V32.9328C58.7364 31.5881 55.1391 30.9853 49.5 30.9853C43.8609 30.9853 40.2636 31.5881 38.22 32.9328ZM60.78 35.8134V37.1457C60.5412 37.2192 60.2959 37.3198 60.044 37.4623C59.6106 36.8086 58.9649 35.6856 58.5061 34.2708C59.8156 34.7288 60.4773 35.2841 60.78 35.8134V35.8134ZM60.78 42.8582V39.5546C61.2378 39.2809 61.5339 39.2651 61.5997 39.3081C61.6185 39.3205 61.72 39.506 61.72 40.033C61.72 40.8337 61.3684 42.1219 60.78 42.8582ZM39.7795 21.4977C40.696 20.5714 41.7422 20.7738 41.8042 20.7863C42.3099 20.9062 42.8016 20.5058 42.9012 19.8973C43.0027 19.2844 42.6728 18.6895 42.1642 18.5662C42.1624 18.5662 42.1445 18.5628 42.1398 18.5617C43.3355 16.8845 45.7109 15.1518 50.44 15.1518C60.6625 15.1518 68.3 24.1079 68.3 32.1163C68.3 34.3556 67.9268 36.0701 67.1993 37.2452C67.0498 34.6338 65.9679 32.2361 65.2046 31.3167C64.837 30.8745 64.243 30.8745 63.8754 31.3167C63.5079 31.7589 63.5079 32.4737 63.8754 32.9159C64.478 33.6419 65.6567 36.3709 65.2384 38.8828C64.6425 39.1022 64.0437 39.169 63.5286 39.1644C63.3819 38.2585 63.0191 37.736 62.6591 37.442V35.5092V27.5924C62.6591 27.58 62.6534 27.5709 62.6534 27.5585C62.6515 27.4827 62.6309 27.4103 62.6158 27.3357C62.6008 27.2622 62.5933 27.1887 62.5679 27.1219C62.5632 27.1106 62.5651 27.0982 62.5604 27.088C62.4476 26.8154 62.2906 26.5191 62.0969 26.2115C62.8273 26.276 63.3641 26.4264 63.3735 26.4298C63.4487 26.4501 63.5248 26.4614 63.5991 26.4614C64.0211 26.4614 64.4056 26.1176 64.5118 25.603C64.6368 24.9969 64.3313 24.385 63.8284 24.2335C63.7485 24.2097 61.9766 23.6974 60.1464 24.0502C59.2591 23.3219 58.1236 22.6309 56.7258 22.0733C57.4261 21.9444 57.9506 21.9376 57.9609 21.9376C58.4798 21.9353 58.9 21.4287 58.8991 20.8055C58.8991 20.1812 58.4789 19.6757 57.96 19.6757C57.8434 19.6757 55.2246 19.6949 53.2995 21.1256C52.1508 20.9265 50.8931 20.8066 49.5 20.8066C48.7762 20.8066 48.0994 20.8462 47.4423 20.9039C48.5421 20.0184 49.7115 19.6474 49.7294 19.6417C50.2323 19.4891 50.5368 18.8761 50.4118 18.271C50.2858 17.6648 49.7764 17.2961 49.2716 17.4477C49.1296 17.4907 45.9477 18.4825 44.4334 21.3879C41.7619 22.0428 39.8255 23.1726 38.5029 24.359C38.7596 23.0731 39.1854 22.0971 39.7795 21.4977V21.4977ZM37.4003 39.3081C37.4661 39.264 37.7613 39.2809 38.22 39.5546V42.8582C37.6316 42.1219 37.28 40.8337 37.28 40.033C37.28 39.506 37.3815 39.3205 37.4003 39.3081ZM40.1 39.3386C40.6706 38.5605 41.9894 36.5101 42.5985 33.7381C44.2604 33.4372 46.4986 33.2472 49.5 33.2472C52.5014 33.2472 54.7396 33.4372 56.4015 33.7381C57.0106 36.5101 58.3294 38.5594 58.9 39.3375V43.4259C58.9 49.8735 53.5627 55.8665 49.5 55.8665C46.2824 55.8665 40.1 50.612 40.1 43.4259V39.3386Z" fill="white"/>
<path d="M36.34 77.3548C35.8211 77.3548 35.4 77.8603 35.4 78.4858V84.1406C35.4 84.766 35.8211 85.2715 36.34 85.2715C36.8589 85.2715 37.28 84.766 37.28 84.1406V78.4858C37.28 77.8603 36.8589 77.3548 36.34 77.3548Z" fill="white"/>
<path d="M62.66 77.3548C62.1411 77.3548 61.72 77.8603 61.72 78.4858V84.1406C61.72 84.766 62.1411 85.2715 62.66 85.2715C63.1789 85.2715 63.6 84.766 63.6 84.1406V78.4858C63.6 77.8603 63.1789 77.3548 62.66 77.3548Z" fill="white"/>
<path d="M53.2599 70.569C53.7791 70.569 54.1999 70.0626 54.1999 69.438C54.1999 68.8134 53.7791 68.3071 53.2599 68.3071C52.7408 68.3071 52.3199 68.8134 52.3199 69.438C52.3199 70.0626 52.7408 70.569 53.2599 70.569Z" fill="white"/>
<path d="M45.74 70.569C46.2592 70.569 46.68 70.0626 46.68 69.438C46.68 68.8134 46.2592 68.3071 45.74 68.3071C45.2209 68.3071 44.8 68.8134 44.8 69.438C44.8 70.0626 45.2209 70.569 45.74 70.569Z" fill="white"/>
<path d="M53.2599 77.3548C53.7791 77.3548 54.1999 76.8485 54.1999 76.2239C54.1999 75.5992 53.7791 75.0929 53.2599 75.0929C52.7408 75.0929 52.3199 75.5992 52.3199 76.2239C52.3199 76.8485 52.7408 77.3548 53.2599 77.3548Z" fill="white"/>
<path d="M45.74 77.3548C46.2592 77.3548 46.68 76.8485 46.68 76.2239C46.68 75.5992 46.2592 75.0929 45.74 75.0929C45.2209 75.0929 44.8 75.5992 44.8 76.2239C44.8 76.8485 45.2209 77.3548 45.74 77.3548Z" fill="white"/>
<path d="M53.2599 84.1406C53.7791 84.1406 54.1999 83.6342 54.1999 83.0096C54.1999 82.385 53.7791 81.8787 53.2599 81.8787C52.7408 81.8787 52.3199 82.385 52.3199 83.0096C52.3199 83.6342 52.7408 84.1406 53.2599 84.1406Z" fill="white"/>
<path d="M45.74 84.1406C46.2592 84.1406 46.68 83.6342 46.68 83.0096C46.68 82.385 46.2592 81.8787 45.74 81.8787C45.2209 81.8787 44.8 82.385 44.8 83.0096C44.8 83.6342 45.2209 84.1406 45.74 84.1406Z" fill="white"/>
</svg>
