<svg width="120" height="119" viewBox="0 0 120 119" fill="none" xmlns="http://www.w3.org/2000/svg">
<path fill-rule="evenodd" clip-rule="evenodd" d="M90.23 26.7832C97.3834 34.3492 95.3249 45.9913 95.1695 56.3831C95.0097 67.0667 96.2426 78.5105 89.3348 86.6444C81.8177 95.4958 70.0592 99.6224 58.4251 99.6492C46.3363 99.6769 34.0529 95.7886 25.9576 86.7899C17.9853 77.9279 15.1494 65.3567 17.0078 53.6095C18.678 43.0522 26.6384 35.1492 35.1484 28.694C42.6515 23.0026 51.5714 20.568 60.9982 20.241C71.3643 19.8814 83.0942 19.2359 90.23 26.7832Z" stroke="#BC9A6C"/>
<path d="M60.5191 59.5739C58.7952 57.9492 56.4586 57.0557 53.9415 57.0557C51.4245 57.0557 49.0879 57.95 47.3645 59.5739C45.74 61.1042 44.8447 63.1244 44.8447 65.263C44.8447 67.4013 45.74 69.4196 47.3645 70.9518C49.0879 72.5765 51.4245 73.47 53.9415 73.47C56.4586 73.47 58.7952 72.5758 60.5191 70.9518C62.143 69.4204 63.0389 67.4005 63.0389 65.263C63.0389 63.1252 62.143 61.1042 60.5191 59.5739ZM49.6017 69.8607C48.3106 68.6482 47.6001 67.0106 47.6001 65.2608C47.6001 63.5115 48.3106 61.8783 49.6017 60.6613C50.7713 59.5598 52.2772 58.9453 53.8492 58.922C53.6535 59.282 53.3146 59.555 52.885 59.9021C52.0842 60.5485 51.0938 61.3514 51.0938 62.881C51.0938 64.4106 52.0897 65.2123 52.885 65.8599C53.5737 66.4193 54.0366 66.7923 54.0366 67.6403C54.0366 68.488 53.5792 68.8609 52.8861 69.4204C52.3614 69.8448 51.7536 70.3384 51.3972 71.0591C50.6959 70.7368 50.0876 70.3306 49.6017 69.8607ZM58.2814 69.8607C57.1134 70.9633 55.6075 71.5779 54.0339 71.6012C54.2296 71.24 54.5685 70.9659 54.9986 70.6188C55.7988 69.9735 56.7892 69.1695 56.7892 67.6403C56.7892 66.1107 55.7934 65.3085 54.9986 64.6614C54.3094 64.1016 53.8464 63.7286 53.8464 62.881C53.8464 62.0333 54.3056 61.66 54.9943 61.1005C55.519 60.6772 56.1268 60.1837 56.4821 59.4636C57.1822 59.7859 57.789 60.1914 58.2732 60.6613C59.5654 61.8783 60.2765 63.5122 60.2765 65.2608C60.2765 67.0098 59.5725 68.6445 58.2803 69.8607H58.2814Z" fill="#BC9A6C"/>
<path d="M78.2489 48.6323L75.0639 44.7291V41.6607C75.0617 40.1918 73.3028 39.0015 71.1329 39H48.7754C46.6054 39.0015 44.8471 40.1918 44.8449 41.6607V44.7291L41.6594 48.6323C39.877 50.8201 38.9407 53.2776 38.9385 55.7762V77.9075C38.9423 79.6147 40.986 80.9981 43.5085 81H76.4003C78.9223 80.9981 80.9665 79.6147 80.9703 77.9075V55.7762C80.9676 53.2776 80.0318 50.8201 78.2489 48.6323ZM64.3339 40.8652H71.1301C71.7789 40.8659 72.3048 41.2215 72.3053 41.6607V44.0372H64.3366L64.3339 40.8652ZM58.134 45.4351C58.2564 45.2937 58.3204 45.1328 58.3204 44.9689V40.8652H61.5742V44.7187L59.2048 47.4852H56.3888L58.134 45.4351ZM47.6002 41.6607C47.6008 41.2215 48.1266 40.8659 48.7754 40.8652H55.5716V44.0361H47.6002V41.6607ZM41.6938 77.9075V55.7762C41.696 53.5929 42.5142 51.4457 44.072 49.5339L47.035 45.9024H54.5588L52.8053 47.954C52.5594 48.2426 52.5588 48.5978 52.8048 48.8864C53.0508 49.175 53.505 49.3526 53.9969 49.353H60.005C60.4969 49.3526 60.9511 49.175 61.1971 48.8868L63.7523 45.9024H71.351L69.1231 48.6323C67.3407 50.8201 66.4044 53.2776 66.4022 55.7762V79.1367H43.5085C42.506 79.1363 41.6938 78.5861 41.6938 77.9075ZM78.2144 77.9075C78.2133 78.5854 77.4017 79.1345 76.4003 79.1348H75.0639V66.3428C75.0639 65.8277 74.4468 65.4104 73.686 65.4104C72.9251 65.4104 72.3086 65.8277 72.3086 66.3428V79.1367H69.1575V55.7762C69.1597 53.5929 69.9779 51.4457 71.5352 49.5339L73.686 46.8984L75.8368 49.5339C77.3946 51.4457 78.2122 53.5929 78.2144 55.7762V77.9075Z" fill="#BC9A6C"/>
</svg>
