<svg width="119" height="119" viewBox="0 0 119 119" fill="none" xmlns="http://www.w3.org/2000/svg">
<path fill-rule="evenodd" clip-rule="evenodd" d="M89.3203 26.7832C96.4738 34.3492 94.4152 45.9913 94.2598 56.3831C94.1 67.0667 95.333 78.5105 88.4251 86.6444C80.908 95.4958 69.1496 99.6224 57.5155 99.6492C45.4266 99.6769 33.1432 95.7886 25.0479 86.7899C17.0756 77.9279 14.2397 65.3567 16.0981 53.6095C17.7683 43.0522 25.7288 35.1492 34.2388 28.694C41.7418 23.0026 50.6618 20.568 60.0886 20.241C70.4546 19.8814 82.1845 19.2359 89.3203 26.7832Z" stroke="#BC9A6C"/>
<path d="M75.8344 68.6956C78.2237 65.1435 79.256 60.7488 78.7203 56.4092L77.9885 50.4624C77.5312 46.7783 70.8223 45.4941 64.0525 45.8194C64.5574 43.9969 64.8929 41.8182 63.9468 40.3952C63.2167 39.4192 62.0775 38.901 60.9145 39.0157C59.7506 38.9013 58.6107 39.42 57.8801 40.3967C56.7911 42.0356 57.3864 44.6274 57.9823 46.5197C49.9919 47.9546 44.0163 51.1132 43.3461 54.2853C43.2532 54.6345 43.2293 55.0007 43.2761 55.3604V55.3723L43.4567 56.8433C41.7306 57.0576 40.1759 58.0623 39.1947 59.5978C38.2157 61.2487 37.8344 63.2259 38.1226 65.1569C38.4205 67.2444 39.577 69.0788 41.2739 70.1553C41.8621 70.5556 42.4938 70.8773 43.1549 71.1135C42.5913 71.7657 42.2678 72.6146 42.2445 73.5028C42.2445 78.376 51.9864 81 61.1526 81C70.3188 81 80.0607 78.376 80.0607 73.5028C80.0607 71.6577 78.6012 70.0076 75.8344 68.6956ZM64.6716 74.2683L61.8949 74.6604C53.8467 75.7801 46.4687 69.7193 45.3959 61.107L45.003 57.9139C47.1277 59.3796 50.9555 60.0453 55.1895 60.0453C57.2852 60.0403 59.3783 59.89 61.4558 59.5955C67.4013 58.7603 72.6851 56.907 75.6131 54.6301C75.6356 54.6164 75.6574 54.6011 75.6782 54.5844C76.1354 54.2343 76.5578 53.8349 76.9387 53.3923L77.3337 56.6011C78.3852 65.2205 72.7205 73.1243 64.6716 74.2683ZM44.0051 61.3034C44.2543 63.3184 44.8359 65.27 45.7229 67.0672C44.9923 67.061 44.2759 66.8501 43.6451 66.4554C42.9515 66.0748 42.4532 65.3821 42.2865 64.5669C42.17 63.8266 42.2544 63.066 42.5295 62.3755C42.8055 61.7601 43.3689 61.3507 44.0051 61.3034ZM76.6005 50.6574C76.6929 51.4071 76.1411 52.3022 75.0521 53.2064C73.1375 52.9847 71.2053 53.0043 69.295 53.2649C66.9406 53.576 65.145 53.2199 64.1008 52.2325C63.394 51.5328 63.0014 50.5422 63.0224 49.5118C63.1262 48.7689 63.3144 48.0423 63.5826 47.3481C71.419 46.8705 76.3491 48.6286 76.6005 50.6604V50.6574ZM59.0216 41.2649C59.4981 40.697 60.2053 40.4166 60.9124 40.5152C61.6196 40.4156 62.3272 40.6961 62.8032 41.2649C63.6526 42.5432 62.7171 45.4326 62.4096 46.3817L62.4026 46.405L62.2675 46.8233C61.9301 47.6807 61.7125 48.5866 61.6218 49.5118C61.5986 50.973 62.164 52.3743 63.1736 53.3579C64.5469 54.6564 66.6646 55.1287 69.4672 54.7538C70.6421 54.5996 71.826 54.5377 73.0093 54.5687C69.3016 56.4223 65.3371 57.6185 61.2709 58.1103C51.8673 59.4351 44.9757 57.6245 44.6647 55.1797V55.1639C44.6647 55.1407 44.6647 55.1204 44.6647 55.098C47.1935 54.498 49.8014 54.3815 52.368 54.7538C55.1692 55.1287 57.2834 54.6571 58.656 53.3601C59.668 52.378 60.2315 50.9737 60.2002 49.5118C60.1128 48.5945 59.9004 47.6958 59.5699 46.8443C59.5041 46.6599 59.4446 46.4754 59.3822 46.2745C58.5811 43.7974 58.4585 42.1121 59.0216 41.2649ZM58.4452 47.9561C58.6253 48.4562 58.7444 48.9791 58.7996 49.5118C58.8206 50.5433 58.428 51.535 57.7211 52.2363C56.6784 53.2229 54.8849 53.5775 52.5326 53.2664C50.1617 52.9347 47.7579 52.9822 45.4001 53.4073C47.1326 51.3861 51.8505 49.1077 58.4452 47.9561ZM39.5133 64.9613C39.2698 63.3946 39.5686 61.7866 40.3537 60.439C41.1064 59.2537 42.3076 58.4825 43.6388 58.33L43.8216 59.8167C42.7201 59.9287 41.7535 60.6493 41.2732 61.7165C40.8759 62.6728 40.746 63.7319 40.8992 64.7656C41.1051 66.0471 41.8591 67.1517 42.9371 67.751C43.9518 68.3946 45.1332 68.6712 46.3062 68.5397C46.3763 68.5299 46.4337 68.5037 46.5009 68.4909C46.781 68.946 47.0759 69.3906 47.3924 69.8112C47.0975 69.9112 46.795 69.9832 46.4883 70.0264C44.9222 70.2033 43.3466 69.8029 42.0218 68.8913C40.6791 68.0484 39.7589 66.6067 39.5133 64.9613ZM61.1526 79.5006C50.8358 79.5006 43.6451 76.3397 43.6451 73.5028C43.7382 72.6969 44.1475 71.9717 44.7705 71.5086C45.0894 71.5529 45.4105 71.5762 45.732 71.5783C46.6425 71.5851 47.5448 71.3935 48.384 71.0152C51.9262 74.9604 57.0106 76.8656 62.0777 76.1463L64.8551 75.752C68.7716 75.2026 72.3609 73.1251 74.9352 69.9177C77.3015 70.9778 78.6601 72.268 78.6601 73.5028C78.6601 76.3397 71.4694 79.5006 61.1526 79.5006Z" fill="#BC9A6C"/>
</svg>
