<svg width="100" height="98" viewBox="0 0 100 98" fill="none" xmlns="http://www.w3.org/2000/svg">
<rect width="100" height="98" fill="#BC9A6C"/>
<g clip-path="url(#clip0_2019_868)">
<path d="M72.0117 33.126C71.9403 32.2104 71.6447 31.3933 71.1794 30.8256L57.0805 13.619C56.1222 12.4496 54.7314 12.7152 53.9804 14.2118L40.3222 41.4337L31.2595 50.9191C31.2593 50.9192 31.2591 50.9195 31.2589 50.9197L28.7573 53.5381L27.0102 55.3667C26.9795 55.3989 26.9493 55.4321 26.9199 55.4664C26.4779 55.9794 26.1779 56.7201 26.0707 57.5694C25.9566 58.4732 26.0746 59.392 26.4027 60.1565L26.4039 60.1591C26.4039 60.1593 26.404 60.1594 26.4041 60.1595L28.52 65.0885L29.2529 66.7961L33.522 76.7411C33.522 76.7411 33.5221 76.7412 33.5221 76.7414L34.2303 78.3913L36.3645 83.363C36.7899 84.354 37.4898 84.8898 38.2021 84.8898C38.6247 84.8898 39.0518 84.7011 39.4286 84.3068L39.43 84.3054C39.4302 84.3051 39.4304 84.3049 39.4306 84.3048L43.5788 79.9631L45.4112 82.1993C45.8138 82.6905 46.2926 82.9286 46.7682 82.9286C47.4251 82.9286 48.0759 82.4745 48.5115 81.6065L55.7031 67.2731L66.1877 56.2994C66.2015 56.287 66.2157 56.2767 66.2291 56.2628L70.4779 51.8156C70.9693 51.3013 71.3029 50.519 71.4173 49.613C71.5313 48.7092 71.4134 47.7905 71.0853 47.026L71.0829 47.0207C71.0826 47.0199 71.0823 47.0191 71.082 47.0184L68.6769 41.4157L71.5572 35.6751C71.9218 34.9477 72.0833 34.0426 72.0117 33.126V33.126ZM31.9735 59.3858C31.7086 61.4842 31.0081 63.3364 29.977 64.697L27.8339 59.7046L27.5244 58.9836C27.3968 58.6862 27.3508 58.3285 27.3952 57.9768C27.4342 57.6683 27.5384 57.3967 27.692 57.1994C27.7139 57.1713 27.737 57.1446 27.7609 57.1195L28.9718 55.8522L31.4186 53.2913C32.0409 55.1608 32.2382 57.2886 31.9735 59.3858ZM38.6786 82.5528C38.2835 82.9647 37.7483 82.8009 37.4849 82.187L37.4553 82.1183L35.0399 76.4913C37.5084 74.4906 40.5557 75.4171 42.3474 78.7129L38.6786 82.5528ZM47.4496 80.3043C47.1568 80.8878 46.6148 80.992 46.2414 80.5362L44.7592 78.7272L52.0914 71.053L47.4496 80.3043ZM65.5143 47.7962C65.7793 45.6979 66.4797 43.8455 67.5108 42.4849L69.9623 48.1959C70.0893 48.4931 70.1349 48.8497 70.0905 49.2006C70.046 49.5533 69.9162 49.8577 69.7248 50.058L66.0677 53.8858C65.4466 52.0176 65.2499 49.8916 65.5143 47.7962V47.7962ZM70.4952 34.373L67.8859 39.5734L61.1214 23.8148C60.4435 22.2355 59.0689 21.8122 58.0572 22.871L52.0796 29.1274C51.3547 29.8863 52.1053 31.6385 52.8304 30.8804L54.0113 29.6443C55.434 32.3802 57.546 33.8483 59.695 33.8483C60.8906 33.8483 62.0971 33.3922 63.2031 32.4498L66.7556 40.7257C65.4277 42.4065 64.5253 44.7361 64.1904 47.3876C63.856 50.0359 64.1235 52.7235 64.9413 55.0643L54.8571 65.619C54.8561 65.6201 54.855 65.6211 54.854 65.6222L43.4732 77.5341C41.2588 73.2802 37.3778 72.0966 34.2846 74.7323L30.7319 66.456C32.0598 64.7752 32.9623 62.4457 33.2971 59.7942C33.6317 57.144 33.3637 54.4546 32.5444 52.1125L49.6961 34.1606C50.4209 33.4018 49.6702 31.6491 48.9453 32.4077L43.9336 37.6532L55.0421 15.5138C55.3348 14.9304 55.8767 14.8261 56.2503 15.282L70.3491 32.4884C70.5299 32.7089 70.6446 33.026 70.6724 33.3817C70.7001 33.7379 70.6373 34.0899 70.4952 34.373V34.373ZM58.808 24.6306C59.2034 24.217 59.7393 24.3807 60.0031 24.9951L61.239 27.8741L62.4481 30.6908C59.9795 32.6916 56.9322 31.7651 55.1406 28.4693L58.808 24.6306Z" fill="white"/>
<path d="M43.8078 42.0898C41.8407 44.1488 40.505 47.2809 40.0468 50.9095C39.5889 54.5364 40.0627 58.225 41.3809 61.2957C42.7037 64.3773 44.7164 66.4654 47.0482 67.1753C47.8777 67.4276 48.148 65.3612 47.3061 65.1047C45.3291 64.5028 43.6228 62.7326 42.5013 60.1201C41.3841 57.5176 40.9825 54.3915 41.3706 51.3177C41.7589 48.2426 42.891 45.5877 44.5585 43.8425C48.0003 40.2401 52.6775 41.6822 54.9847 47.057C56.1019 49.6597 56.5034 52.7858 56.1153 55.8596C55.727 58.9348 54.5949 61.5894 52.9275 63.3345C52.2712 64.0214 51.5573 64.5396 50.8054 64.8747C49.9664 65.2485 50.3364 67.277 51.1754 66.9033C52.0627 66.5077 52.9048 65.8968 53.6781 65.0874C55.6452 63.0284 56.9809 59.8964 57.439 56.268C57.897 52.6409 57.4232 48.9523 56.105 45.8815C53.3836 39.5423 47.8673 37.841 43.8078 42.0898V42.0898Z" fill="white"/>
<path d="M59.018 43.8898C59.1471 43.8898 59.2776 43.832 59.3928 43.7113L62.5689 40.3871C62.8785 40.0629 62.9614 39.4079 62.7542 38.9238C62.5469 38.4398 62.1278 38.3102 61.8182 38.6341L58.6421 41.9584C58.3326 42.2825 58.2496 42.9376 58.4568 43.4216C58.5869 43.7257 58.8004 43.8898 59.018 43.8898Z" fill="white"/>
<path d="M38.093 63.4662L34.917 66.7905C34.6075 67.1145 34.5245 67.7695 34.7317 68.2536C34.8619 68.5575 35.0753 68.7217 35.2929 68.7217C35.422 68.7217 35.5525 68.6639 35.6677 68.5433L38.8437 65.219C39.1533 64.895 39.2362 64.24 39.029 63.7559C38.8216 63.2719 38.4027 63.1421 38.093 63.4662Z" fill="white"/>
<path d="M51.1392 61.2171C51.6479 62.402 52.7308 61.1391 52.2597 60.0417L51.8961 59.1949C52.8689 57.6276 52.9006 55.4592 52.458 53.9255C51.7273 51.3938 50.2247 51.1848 48.6991 51.7471L47.1685 48.1814C47.553 47.9862 47.8526 48.0371 47.8822 48.0427C48.7411 48.2364 48.9395 46.1637 48.0814 45.9564C48.0347 45.9453 47.2697 45.7755 46.3994 46.3897L46.1025 45.6983C45.6163 44.566 44.4959 45.7413 44.9821 46.8736L45.3058 47.628C44.6048 48.8035 44.402 50.5305 44.8087 52.017C45.4047 54.1952 46.7402 54.4541 48.0829 54.0973L50.0525 58.6857C49.6622 59.0172 49.3481 59.1204 48.7587 59.1315C47.9063 59.1477 47.9419 61.2612 48.7751 61.2408C49.6945 61.2234 50.2254 60.9671 50.8066 60.4423L51.1392 61.2171ZM46.7573 52.1455C46.4777 52.1133 46.1998 51.7372 46.0494 51.1874C45.9203 50.7157 45.8754 50.0422 46.094 49.4638L47.2422 52.1383C47.0692 52.158 46.9057 52.1625 46.7573 52.1455V52.1455ZM49.5469 53.5923C50.6574 53.1473 51.1142 54.3988 51.228 54.793C51.4415 55.5325 51.4574 56.536 51.1094 57.3619L49.4993 53.6112C49.5154 53.6047 49.5306 53.5989 49.5469 53.5923V53.5923Z" fill="white"/>
</g>
<defs>
<clipPath id="clip0_2019_868">
<rect width="47" height="72.3816" fill="white" transform="translate(26 12.8899)"/>
</clipPath>
</defs>
</svg>
