<svg width="120" height="119" viewBox="0 0 120 119" fill="none" xmlns="http://www.w3.org/2000/svg">
<path fill-rule="evenodd" clip-rule="evenodd" d="M90.2307 26.7832C97.3842 34.3492 95.3256 45.9913 95.1702 56.3831C95.0104 67.0667 96.2433 78.5105 89.3355 86.6444C81.8184 95.4958 70.0599 99.6224 58.4259 99.6492C46.337 99.6769 34.0536 95.7886 25.9583 86.7899C17.986 77.9279 15.1501 65.3567 17.0085 53.6095C18.6787 43.0522 26.6392 35.1492 35.1492 28.694C42.6522 23.0026 51.5722 20.568 60.999 20.241C71.365 19.8814 83.0949 19.2359 90.2307 26.7832Z" stroke="#BC9A6C"/>
<path d="M52.6121 80C53.1065 80.0001 53.6002 79.9592 54.0881 79.8779C54.2446 79.8522 54.4056 79.821 54.5652 79.7851C55.4594 79.5849 56.3185 79.2483 57.1131 78.7869C59.485 77.4141 61.3532 74.9079 62.3736 71.73C62.7169 70.6541 62.9597 69.5479 63.0987 68.4259C63.4369 68.4594 63.7781 68.4781 64.1227 68.4781C66.2121 68.4781 68.407 67.8658 70.5634 66.6704C73.3507 65.1253 75.8188 62.7373 77.7008 59.7647C81.9545 53.0486 82.0708 45.0747 77.9781 40.8053C77.2758 40.0711 76.4563 39.4623 75.5542 39.0042C72.8402 37.6243 69.4992 37.6678 66.1468 39.1266C62.8436 40.5637 59.8198 43.258 57.6323 46.7127C56.9856 47.7331 56.4231 48.8059 55.9505 49.9201C54.0337 48.4917 51.8824 47.6694 49.6776 47.6412C48.9872 47.6325 48.2981 47.7041 47.6238 47.8545C47.314 47.9235 47.0082 48.0095 46.7077 48.1121C43.8281 49.0871 41.5009 51.5166 40.1549 54.9535C38.8284 58.3386 38.5781 62.4111 39.45 66.4195C41.1753 74.3551 46.7796 80 52.6121 80V80ZM77.4383 42.3291C78.8533 44.1 79.602 46.5694 79.559 49.3701C79.5103 52.5612 78.431 55.9805 76.5203 58.997C74.7647 61.7699 72.472 63.9921 69.8902 65.4234C67.691 66.6425 65.3849 67.1973 63.3147 67.0186C67.3928 63.773 70.1388 59.1105 71.0221 53.9324C71.7278 49.8187 73.6941 46.0346 76.642 43.1174L77.4383 42.3291ZM74.2804 41.5817L75.3595 40.514C75.4471 40.5664 75.5353 40.6201 75.6225 40.6764C75.9161 40.8675 76.1964 41.0789 76.4613 41.3091L75.6619 42.0999C72.5029 45.2259 70.3959 49.2809 69.6398 53.6892C68.8761 58.1664 66.6175 62.2418 63.2422 65.2327C63.2233 64.6577 63.1807 64.0789 63.1145 63.4963C66.0144 60.4401 67.946 56.5748 68.6608 52.3972C69.3584 48.2806 71.3258 44.494 74.2804 41.5817V41.5817ZM58.8126 47.4804C62.6929 41.3523 69.163 38.1877 73.9946 39.8781L73.3004 40.5649C70.1345 43.6855 68.0262 47.7429 67.2787 52.154C66.6753 55.6823 65.1399 58.9791 62.8357 61.694C62.8048 61.536 62.7728 61.378 62.7384 61.2199C61.8086 56.9434 59.7349 53.2946 57.0823 50.8593C57.5546 49.6812 58.1339 48.55 58.8126 47.4804V47.4804ZM50.3521 50.2329L50.3631 49.1045C52.5995 49.3385 54.8543 50.5438 56.7822 52.5506C58.9788 54.8376 60.6077 58.0252 61.3689 61.5259C62.0996 64.8876 61.9826 68.3554 61.0402 71.2904C60.3188 73.5366 59.1412 75.3966 57.6576 76.6689C58.2662 71.4502 56.9442 66.1883 53.9473 61.8999C51.6014 58.5493 50.3443 54.5411 50.3508 50.4329C50.3508 50.3666 50.3508 50.3011 50.3517 50.2329H50.3521ZM47.6123 50.8448L47.6266 49.3166C47.7256 49.2899 47.825 49.2651 47.9251 49.2428C48.2663 49.1669 48.6122 49.1148 48.9605 49.0869L48.9494 50.2172C48.9484 50.2895 48.9484 50.3608 48.9484 50.4331C48.9414 54.8354 50.2884 59.1305 52.8022 62.7209C55.6364 66.7762 56.8645 71.7622 56.2432 76.6914L56.1149 77.7186C55.6934 77.939 55.2527 78.1191 54.7983 78.2568L54.8947 77.4821C55.0055 76.5934 55.0612 75.6986 55.0613 74.8029C55.0689 70.3995 53.7218 66.1033 51.2074 62.512C48.8215 59.1062 47.5626 55.0213 47.6119 50.8448H47.6123ZM46.2183 49.848L46.2091 50.8309C46.1564 55.3063 47.5054 59.6833 50.0621 63.3328C52.4084 66.6841 53.6656 70.6932 53.6588 74.8023C53.6586 75.6384 53.6066 76.4736 53.5031 77.3031L53.3484 78.5423C50.8518 78.7821 48.2551 77.7698 45.9808 75.6547C43.486 73.3344 41.6533 69.946 40.8201 66.1137C39.2733 59.0034 41.6261 52.125 46.2183 49.848V49.848Z" fill="#BC9A6C"/>
<path d="M62.9741 46.8612C63.1513 46.8614 63.322 46.7934 63.4517 46.6709C63.7459 46.3935 64.0552 46.1254 64.371 45.8739C64.4434 45.8162 64.5039 45.7447 64.549 45.6633C64.5942 45.5819 64.623 45.4923 64.634 45.3996C64.645 45.307 64.6378 45.213 64.6129 45.1231C64.5881 45.0333 64.546 44.9492 64.489 44.8758C64.4321 44.8024 64.3615 44.7411 64.2812 44.6954C64.2009 44.6497 64.1125 44.6204 64.0211 44.6093C63.9296 44.5982 63.8369 44.6054 63.7482 44.6306C63.6595 44.6559 63.5766 44.6985 63.5042 44.7562C63.158 45.0316 62.8189 45.3258 62.4959 45.6299C62.3928 45.7272 62.3209 45.8537 62.2897 45.9929C62.2584 46.1321 62.2693 46.2777 62.3209 46.4106C62.3724 46.5434 62.4623 46.6575 62.5788 46.7379C62.6952 46.8183 62.8329 46.8612 62.9737 46.8612H62.9741Z" fill="#BC9A6C"/>
<path d="M59.3901 51.2258C59.4725 51.2674 59.5622 51.2922 59.6541 51.2986C59.746 51.3051 59.8383 51.2931 59.9256 51.2634C60.0129 51.2337 60.0936 51.1868 60.163 51.1255C60.2325 51.0642 60.2893 50.9896 60.3303 50.906C60.7772 49.9956 61.3156 49.1343 61.9369 48.3358C61.9953 48.2627 62.0388 48.1786 62.0648 48.0883C62.0909 47.998 62.099 47.9033 62.0887 47.8098C62.0784 47.7163 62.0498 47.6259 62.0048 47.5436C61.9597 47.4614 61.899 47.389 61.8261 47.3308C61.7532 47.2725 61.6696 47.2295 61.5802 47.2042C61.4908 47.1789 61.3973 47.1718 61.3052 47.1834C61.2131 47.195 61.1242 47.225 61.0436 47.2717C60.963 47.3184 60.8923 47.3808 60.8357 47.4553C60.1544 48.3307 59.5642 49.2749 59.0742 50.2731C58.9915 50.4419 58.9783 50.6371 59.0375 50.8157C59.0967 50.9944 59.2235 51.1419 59.3901 51.2258V51.2258Z" fill="#BC9A6C"/>
<path d="M45.8208 73.2956C45.9417 73.4389 46.1139 73.5277 46.2993 73.5424C46.4848 73.557 46.6685 73.4964 46.8099 73.3739C46.9513 73.2514 47.0388 73.0769 47.0533 72.889C47.0678 72.701 47.008 72.5149 46.8871 72.3716C46.6259 72.062 46.3743 71.7376 46.1397 71.4074C46.031 71.2545 45.8667 71.1515 45.6831 71.1213C45.4995 71.091 45.3115 71.1359 45.1606 71.2461C45.0097 71.3563 44.9081 71.5227 44.8782 71.7088C44.8484 71.8949 44.8927 72.0854 45.0014 72.2383C45.2591 72.6005 45.5347 72.9561 45.8208 73.2956Z" fill="#BC9A6C"/>
<path d="M47.5512 75.0532C48.3857 75.7796 49.292 76.4168 50.2556 76.9546C50.3364 76.9999 50.4251 77.0287 50.5168 77.0392C50.6085 77.0497 50.7014 77.0418 50.7901 77.0159C50.8787 76.99 50.9615 76.9466 51.0336 76.8882C51.1057 76.8298 51.1657 76.7576 51.2102 76.6757C51.2547 76.5937 51.2828 76.5037 51.2929 76.4107C51.303 76.3178 51.2949 76.2237 51.2691 76.1339C51.2433 76.0441 51.2002 75.9604 51.1423 75.8875C51.0845 75.8146 51.013 75.754 50.932 75.7092C50.0531 75.2187 49.2265 74.6376 48.4653 73.9751C48.3239 73.854 48.1411 73.7945 47.9567 73.8094C47.7722 73.8243 47.601 73.9125 47.4804 74.0547C47.3598 74.197 47.2996 74.3818 47.3128 74.5688C47.3261 74.7559 47.4118 74.9301 47.5512 75.0534V75.0532Z" fill="#BC9A6C"/>
</svg>
