<svg width="120" height="119" viewBox="0 0 120 119" fill="none" xmlns="http://www.w3.org/2000/svg">
<path fill-rule="evenodd" clip-rule="evenodd" d="M90.23 26.7832C97.3834 34.3492 95.3249 45.9913 95.1695 56.3831C95.0097 67.0667 96.2426 78.5105 89.3348 86.6444C81.8177 95.4958 70.0592 99.6224 58.4251 99.6492C46.3363 99.6769 34.0528 95.7886 25.9576 86.7899C17.9853 77.9279 15.1494 65.3567 17.0078 53.6095C18.6779 43.0522 26.6384 35.1492 35.1484 28.694C42.6515 23.0026 51.5714 20.568 60.9982 20.241C71.3643 19.8814 83.0942 19.2359 90.23 26.7832Z" stroke="#BC9A6C"/>
<path d="M80.1308 51.2921C72.6539 49.7279 68.7089 51.4479 66.726 53.1278L66.6557 51.7214C66.6254 51.62 66.6432 51.4431 66.4177 51.2194C63.646 48.4954 62.0564 46.8337 61.6522 46.5491V43.7845C61.6522 43.048 61.1957 42.3981 60.4979 41.9706V40.399C60.4979 39.0762 59.0939 38 57.3682 38C55.6426 38 54.2386 39.0762 54.2386 40.399V41.9706C53.5408 42.3981 53.0843 43.048 53.0843 43.7845V46.5491C52.7281 46.7999 51.6518 47.9437 48.3187 51.2194C48.1208 51.4157 48.1123 51.6178 48.0813 51.721L48.0419 52.5071C45.1772 52.625 42.7246 53.4152 41.0595 54.8262C39.1349 56.466 38.4755 58.7167 39.2648 61.0508C39.3107 61.2037 39.2428 61.0379 43.9567 69.2882C42.8561 70.6613 42.5982 72.3613 43.3475 73.9271L45.0615 77.5079C45.7749 78.9985 47.6454 80 49.7172 80H65.0193C67.0911 80 68.9616 78.9985 69.675 77.5079L71.389 73.9271C72.3616 71.8947 71.6526 69.6299 69.5819 68.1576C68.4544 67.3557 67.7155 66.3206 67.4258 65.1851C69.0972 55.6826 79.7022 53.0807 80.1603 52.9737C80.6469 52.86 80.9774 52.5135 80.9702 52.1239C80.9629 51.7343 80.6213 51.395 80.1308 51.2921ZM65.084 65.3203H65.0808C65.0713 65.1106 64.9767 63.3057 65.084 65.3203ZM56.5216 40.399C56.5216 40.041 56.9012 39.75 57.3682 39.75C57.8353 39.75 58.2149 40.041 58.2149 40.399V41.453H56.5216V40.399ZM55.3673 43.7845C55.3673 43.4641 55.7078 43.203 56.1259 43.203H58.6106C59.0287 43.203 59.3692 43.4641 59.3692 43.7845V46.3014H55.3673V43.7845ZM54.4002 48.0514H60.3363L63.1894 50.8798H51.547L54.4002 48.0514ZM49.7295 64.3974C49.9021 60.9583 50.1485 56.0505 50.3203 52.6298H64.4162C64.468 53.6212 64.8426 61.3436 65.0803 65.3203H49.5978C49.6635 65.0167 49.7138 64.7099 49.7295 64.3974V64.3974ZM41.4658 60.5791C41.4631 60.5701 41.4608 60.5629 41.4603 60.5607C40.8817 58.8552 41.3538 57.1915 42.7545 55.9986C43.9673 54.9709 45.7977 54.3659 47.954 54.2582L47.4487 64.3299C47.3828 65.634 46.731 66.8502 45.6024 67.8066L41.4658 60.5791ZM69.2453 73.3247L67.5314 76.9055C67.1468 77.7095 66.1374 78.25 65.0193 78.25H49.7172C48.5991 78.25 47.5897 77.7095 47.2051 76.9055L45.4912 73.3247C45.3312 72.9908 45.2411 72.6474 45.2129 72.3049H69.5236C69.4954 72.6474 69.4053 72.9908 69.2453 73.3247V73.3247ZM68.0291 69.4402C68.4819 69.7622 68.8269 70.144 69.0789 70.5549H45.6578C45.9098 70.144 46.255 69.7622 46.7079 69.4402C47.6622 68.7616 48.4051 67.9556 48.9187 67.0703H65.8179C66.3316 67.9556 67.0746 68.7616 68.0291 69.4402ZM67.1953 59.6656C67.1469 55.6395 67.1577 56.3836 67.1518 55.8315C67.4996 55.0706 69.3501 51.9611 76.1417 52.4807C73.3988 53.6782 69.5976 55.902 67.1953 59.6656Z" fill="#BC9A6C"/>
</svg>
